<?xml version="1.0" encoding="UTF-8" standalone="no"?>
<!-- Created with Inkscape (http://www.inkscape.org/) -->

<svg
   xmlns:dc="http://purl.org/dc/elements/1.1/"
   xmlns:cc="http://creativecommons.org/ns#"
   xmlns:rdf="http://www.w3.org/1999/02/22-rdf-syntax-ns#"
   xmlns:svg="http://www.w3.org/2000/svg"
   xmlns="http://www.w3.org/2000/svg"
   xmlns:sodipodi="http://sodipodi.sourceforge.net/DTD/sodipodi-0.dtd"
   xmlns:inkscape="http://www.inkscape.org/namespaces/inkscape"
   width="256"
   height="256"
   viewBox="0 0 67.733335 67.733333"
   version="1.1"
   id="svg7448"
   inkscape:version="0.91 r13725"
   sodipodi:docname="epi-gtk.svg">
  <defs
     id="defs7442">
    <linearGradient
       gradientTransform="matrix(0.9954,0,0,-0.9999,607.6064,666.5718)"
       y2="666.56842"
       x2="-460.2334"
       y1="370.53909"
       x1="-460.2334"
       gradientUnits="userSpaceOnUse"
       id="rect3438-6-0-6-7-2_60_-80">
      <stop
         id="stop29185"
         style="stop-color:#000000"
         offset="0" />
      <stop
         id="stop29187"
         style="stop-color:#000000;stop-opacity:0.5882"
         offset="1" />
    </linearGradient>
    <linearGradient
       gradientTransform="matrix(0.9867,0,0,-0.9918,595.6101,662.6824)"
       y2="668.2168"
       x2="-452.13281"
       y1="371.53421"
       x1="-452.13281"
       gradientUnits="userSpaceOnUse"
       id="rect3438-6-0-1-1_60_-262">
      <stop
         id="stop29191"
         style="stop-color:#000000"
         offset="0" />
      <stop
         id="stop29193"
         style="stop-color:#000000;stop-opacity:0.5882"
         offset="1" />
    </linearGradient>
    <linearGradient
       gradientTransform="matrix(0.9996,0,0,-0.9996,-616.0945,-74.9999)"
       y2="-366.80859"
       x2="765.62701"
       y1="-74.489304"
       x1="765.62701"
       gradientUnits="userSpaceOnUse"
       id="XMLID_140_-06">
      <stop
         id="stop29198"
         style="stop-color:#0046aa;stop-opacity:1"
         offset="0" />
      <stop
         id="stop29200"
         style="stop-color:#0053c2;stop-opacity:1"
         offset="0.42521209" />
      <stop
         id="stop29204"
         style="stop-color:#003884;stop-opacity:1"
         offset="0.78124976" />
      <stop
         id="stop29206"
         style="stop-color:#00306e;stop-opacity:1"
         offset="1" />
    </linearGradient>
    <linearGradient
       id="linearGradient3703">
      <stop
         style="stop-color:black;stop-opacity:0;"
         offset="0"
         id="stop3705" />
      <stop
         id="stop3711"
         offset="0.5"
         style="stop-color:black;stop-opacity:1;" />
      <stop
         style="stop-color:black;stop-opacity:0;"
         offset="1"
         id="stop3707" />
    </linearGradient>
    <linearGradient
       id="linearGradient4210">
      <stop
         id="stop4212"
         offset="0.0000000"
         style="stop-color:#eaba6f;stop-opacity:1.0000000;" />
      <stop
         id="stop4214"
         offset="1.0000000"
         style="stop-color:#b97a1b;stop-opacity:1.0000000;" />
    </linearGradient>
    <filter
       inkscape:collect="always"
       style="color-interpolation-filters:sRGB"
       id="filter5694"
       x="-0.012735292"
       width="1.0254706"
       y="-0.01134498"
       height="1.0226901">
      <feGaussianBlur
         inkscape:collect="always"
         stdDeviation="0.17218909"
         id="feGaussianBlur5696" />
    </filter>
    <filter
       inkscape:collect="always"
       style="color-interpolation-filters:sRGB"
       id="filter6395"
       x="-0.012042001"
       width="1.024084"
       y="-0.011958291"
       height="1.0239166">
      <feGaussianBlur
         inkscape:collect="always"
         stdDeviation="0.061690767"
         id="feGaussianBlur6397" />
    </filter>
  </defs>
  <sodipodi:namedview
     id="base"
     pagecolor="#ffffff"
     bordercolor="#666666"
     borderopacity="1.0"
     inkscape:pageopacity="0.0"
     inkscape:pageshadow="2"
     inkscape:zoom="1.8285339"
     inkscape:cx="226.2908"
     inkscape:cy="82.34265"
     inkscape:document-units="mm"
     inkscape:current-layer="g10129"
     showgrid="false"
     fit-margin-top="0"
     fit-margin-left="0"
     fit-margin-right="0"
     fit-margin-bottom="0"
     inkscape:window-width="1920"
     inkscape:window-height="926"
     inkscape:window-x="0"
     inkscape:window-y="24"
     inkscape:window-maximized="1"
     units="px" />
  <metadata
     id="metadata7445">
    <rdf:RDF>
      <cc:Work
         rdf:about="">
        <dc:format>image/svg+xml</dc:format>
        <dc:type
           rdf:resource="http://purl.org/dc/dcmitype/StillImage" />
        <dc:title />
      </cc:Work>
    </rdf:RDF>
  </metadata>
  <g
     inkscape:label="Capa 1"
     inkscape:groupmode="layer"
     id="layer1"
     transform="translate(-42.060823,-59.097487)">
    <g
       id="g8111"
       transform="translate(4.867966,-4.4644178)">
      <g
         transform="matrix(0.19825528,0,0,0.19825528,41.441077,68.13338)"
         id="XMLID_2056_">
        <linearGradient
           id="linearGradient7404"
           gradientUnits="userSpaceOnUse"
           x1="-460.2334"
           y1="370.53909"
           x2="-460.2334"
           y2="666.56842"
           gradientTransform="matrix(0.9954,0,0,-0.9999,607.6064,666.5718)">
          <stop
             offset="0"
             style="stop-color:#000000"
             id="stop7400" />
          <stop
             offset="1"
             style="stop-color:#000000;stop-opacity:0.5882"
             id="stop7402" />
        </linearGradient>
        <path
           inkscape:connector-curvature="0"
           id="rect3438-6-0-6-7-2_30_"
           enable-background="new    "
           d="m 71.088,0.07 h 156.804 c 37.43,0 67.773,30.583 67.773,68.308 v 159.384 c 0,37.725 -30.344,68.308 -67.773,68.308 H 71.088 C 33.657,296.07 3.315,265.487 3.315,227.762 V 68.378 C 3.314,30.652 33.657,0.07 71.088,0.07 Z"
           style="opacity:0.45;fill:url(#rect3438-6-0-6-7-2_60_-80)" />
        <linearGradient
           id="linearGradient7411"
           gradientUnits="userSpaceOnUse"
           x1="-452.13281"
           y1="371.53421"
           x2="-452.13281"
           y2="668.2168"
           gradientTransform="matrix(0.9867,0,0,-0.9918,595.6101,662.6824)">
          <stop
             offset="0"
             style="stop-color:#000000"
             id="stop7407" />
          <stop
             offset="1"
             style="stop-color:#000000;stop-opacity:0.5882"
             id="stop7409" />
        </linearGradient>
        <path
           inkscape:connector-curvature="0"
           id="rect3438-6-0-1-1_30_"
           enable-background="new    "
           d="m 71.812,-0.055 h 155.354 c 37.127,0 67.225,30.401 67.225,67.903 V 226.29 c 0,37.502 -30.098,67.904 -67.225,67.904 H 71.812 C 34.685,294.194 4.588,263.792 4.588,226.29 V 67.849 C 4.589,30.347 34.686,-0.055 71.812,-0.055 Z"
           style="opacity:0.45;fill:url(#rect3438-6-0-1-1_60_-262)" />
        <g
           id="rect3438-6_30_"
           transform="translate(0.16800653,2.2039959)">
          <linearGradient
             id="linearGradient7424"
             gradientUnits="userSpaceOnUse"
             x1="765.62701"
             y1="-74.489304"
             x2="765.62701"
             y2="-366.80859"
             gradientTransform="matrix(0.9996,0,0,-0.9996,-616.0945,-74.9999)">
            <stop
               offset="0"
               style="stop-color:#006cf9;stop-opacity:1"
               id="stop7414" />
            <stop
               offset="0.3475"
               style="stop-color:#0053c2;stop-opacity:1"
               id="stop7416" />
            <stop
               offset="0.6063"
               style="stop-color:#0047a6;stop-opacity:1"
               id="stop7418" />
            <stop
               offset="0.8413"
               style="stop-color:#003884;stop-opacity:1"
               id="stop7420" />
            <stop
               offset="1"
               style="stop-color:#003580;stop-opacity:1"
               id="stop7422" />
          </linearGradient>
          <path
             inkscape:connector-curvature="0"
             id="XMLID_3584_"
             d="m 70.557,-0.54 157.341,0 c 37.239,0 67.431,30.19 67.431,67.431 l 0,157.339 c 0,37.241 -30.191,67.432 -67.431,67.432 l -157.341,0 c -37.24,0 -67.431,-30.19 -67.431,-67.432 l 0,-157.339 C 3.126,29.65 33.316,-0.54 70.557,-0.54 Z"
             style="fill:url(#XMLID_140_-06)" />
        </g>
        <g
           id="g5731"
           transform="matrix(5.689115,0,0,5.6891146,-467.19464,23.526797)">
          <g
             id="g10129"
             transform="matrix(1.4842907,0,0,1.4842907,-52.487755,-11.518405)">
            <g
               transform="matrix(0.62375665,0,0,0.62375665,101.87085,23.481146)"
               id="g5737"
               style="fill:#000000">
              <path
                 style="fill:none"
                 inkscape:connector-curvature="0"
                 d="M 0,0 24,0 24,24 0,24 0,0 Z"
                 id="path5727" />
              <g
                 transform="matrix(1.3035222,0,0,1.3035222,3.415079,0.94343786)"
                 id="g5667"
                 style="fill:#000000;fill-opacity:1">
                <g
                   id="g5665"
                   transform="translate(0,1.8696226)">
                  <path
                     style="opacity:0.91000001;fill:#000000;fill-opacity:1;filter:url(#filter5694)"
                     sodipodi:nodetypes="csccccssscscccccc"
                     inkscape:connector-curvature="0"
                     d="M 0.63814745,8.8028856 C 0.01404941,10.693668 1.0389114,12.728436 2.9296944,13.352534 c 1.890783,0.624099 3.92555,-0.400763 4.549649,-2.291547 z M 18.261961,6.6332241 c 3.26764,-8.7769686 6.305671,-19.1013071 -1.995213,-24.5046931 l 0.408491,-1.237603 c 0.499283,-1.512621 -0.318301,-3.135869 -1.830936,-3.635153 -1.51262,-0.49928 -3.135871,0.318319 -3.635146,1.83094 l -0.408497,1.237607 c -5.6339376,-0.487185 -11.04467658,2.911654 -12.8886005,8.498044 l -3.30205,10.0039535 -4.8468625,2.441245 -0.601404,1.8220276 30.940075,10.2125249 0.601411,-1.822027 z"
                     id="path5729-3" />
                  <path
                     style="fill:#996600;fill-opacity:1"
                     sodipodi:nodetypes="csccccssscscccccc"
                     inkscape:connector-curvature="0"
                     d="m 0.28387121,8.2084774 c -0.62409889,1.8907826 0.4007631,3.9255506 2.29154609,4.5496486 1.8907835,0.624099 3.92555,-0.400763 4.5496496,-2.291547 z M 17.907684,6.0388161 c 3.26764,-8.7769693 6.305671,-19.1013071 -1.995213,-24.5046931 l 0.408491,-1.237603 c 0.499283,-1.512621 -0.318301,-3.135869 -1.830936,-3.635153 -1.51262,-0.49928 -3.135871,0.318319 -3.635146,1.83094 l -0.408497,1.237607 c -5.6339372,-0.487185 -11.04467618,2.911654 -12.8886005,8.498044 L -5.7442669,-1.7680887 -10.59113,0.67315649 -11.192534,2.495184 19.747541,12.707709 20.348952,10.885682 Z"
                     id="path5729" />
                </g>
              </g>
            </g>
            <g
               id="g6399"
               transform="translate(-39.540928,-0.94825587)">
              <path
                 inkscape:connector-curvature="0"
                 d="m 156.41062,18.22761 -2.82788,-2.372958 -0.79304,0.940577 2.82788,2.372958 0.79304,-0.940577 z m -8.68036,-1.432381 -0.78689,-0.940577 -2.82787,2.366811 0.79303,0.940577 2.82173,-2.366811 z m 2.84017,2.834025 -0.92213,0 0,3.688536 2.92009,1.752055 0.46107,-0.756149 -2.45903,-1.456973 0,-3.227469 z m -0.30737,-2.459024 c -3.05534,0 -5.53281,2.477467 -5.53281,5.532804 0,3.055338 2.47132,5.532805 5.53281,5.532805 3.05533,0 5.5328,-2.477467 5.5328,-5.532805 0,-3.055337 -2.47747,-5.532804 -5.5328,-5.532804 z m 0,9.836097 c -2.37911,0 -4.3033,-1.924186 -4.3033,-4.303293 0,-2.379105 1.92419,-4.303292 4.3033,-4.303292 2.3791,0 4.30329,1.924187 4.30329,4.303292 0,2.379107 -1.92419,4.303293 -4.30329,4.303293 z"
                 id="path6368-3"
                 style="opacity:0.93000034;fill:#000000;filter:url(#filter6395)" />
              <g
                 transform="matrix(0.61475605,0,0,0.61475605,142.72749,14.463636)"
                 id="g6376"
                 style="fill:#000000">
                <path
                   style="fill:none"
                   inkscape:connector-curvature="0"
                   d="M 0,0 24,0 24,24 0,24 Z"
                   id="path6366" />
                <path
                   style="fill:#ffffff;fill-opacity:1"
                   inkscape:connector-curvature="0"
                   d="M 22,5.72 17.4,1.86 16.11,3.39 20.71,7.25 22,5.72 Z M 7.88,3.39 6.6,1.86 2,5.71 3.29,7.24 7.88,3.39 Z M 12.5,8 11,8 l 0,6 4.75,2.85 0.75,-1.23 -4,-2.37 0,-5.25 z M 12,4 c -4.97,0 -9,4.03 -9,9 0,4.97 4.02,9 9,9 4.97,0 9,-4.03 9,-9 0,-4.97 -4.03,-9 -9,-9 z m 0,16 C 8.13,20 5,16.87 5,13 5,9.13 8.13,6 12,6 c 3.87,0 7,3.13 7,7 0,3.87 -3.13,7 -7,7 z"
                   id="path6368" />
              </g>
            </g>
          </g>
        </g>
      </g>
    </g>
  </g>
</svg>
